<?xml version="1.0" standalone="no"?>
<!DOCTYPE svg PUBLIC "-//W3C//DTD SVG 20010904//EN"
 "http://www.w3.org/TR/2001/REC-SVG-20010904/DTD/svg10.dtd">
<svg version="1.0" xmlns="http://www.w3.org/2000/svg"
 width="1280.000000pt" height="244.000000pt" viewBox="0 0 1280.000000 244.000000"
 preserveAspectRatio="xMidYMid meet">

<g transform="translate(0.000000,244.000000) scale(0.100000,-0.100000)"
fill="#000000" stroke="none">
<path d="M247 2192 l-247 -247 0 -578 0 -577 260 0 260 0 0 -245 0 -245 598 0
597 0 248 248 247 247 0 578 0 577 -260 0 -260 0 0 245 0 245 -598 0 -597 0
-248 -248z m1443 -822 l0 -580 -585 0 -585 0 0 580 0 580 585 0 585 0 0 -580z"/>
<path d="M3782 1548 c3 -750 5 -828 21 -883 54 -183 155 -290 322 -342 53 -16
98 -18 380 -18 354 0 379 3 505 63 54 25 93 53 140 101 77 78 109 134 146 256
26 85 28 101 28 290 1 226 -9 283 -72 415 -47 100 -149 203 -245 249 -117 56
-162 61 -569 61 l-368 0 0 315 0 315 -145 0 -146 0 3 -822z m1073 -116 c28
-13 64 -37 82 -54 65 -63 103 -193 103 -353 0 -230 -64 -364 -199 -417 -50
-19 -79 -22 -264 -26 -338 -7 -417 19 -479 153 -22 49 -23 60 -26 388 l-3 338
368 -3 c360 -3 369 -4 418 -26z"/>
<path d="M9445 2066 l-480 -293 -3 -594 -2 -594 476 -290 c262 -160 481 -291
487 -292 7 -2 228 129 492 290 l480 293 3 590 2 591 -482 293 c-266 161 -485
294 -488 296 -3 1 -221 -129 -485 -290z m955 -29 l465 -284 2 -574 3 -574
-467 -284 c-256 -156 -471 -284 -477 -284 -6 0 -175 101 -376 223 -201 123
-409 250 -462 282 l-98 59 0 577 0 577 463 282 c254 155 467 282 472 282 6 1
219 -127 475 -282z"/>
<path d="M9477 1982 l-437 -267 2 -539 3 -538 440 -269 440 -268 46 27 c26 15
224 135 442 267 l396 240 1 541 0 541 -431 263 c-237 144 -438 264 -447 266
-9 2 -214 -117 -455 -264z m874 -20 l424 -258 3 -525 2 -524 -414 -253 c-228
-138 -421 -255 -430 -258 -9 -3 -179 94 -440 253 l-425 258 2 523 2 524 425
259 c234 142 426 259 426 259 1 0 192 -116 425 -258z"/>
<path d="M9717 2048 l-207 -122 0 -252 0 -251 159 -97 c87 -53 161 -96 165
-96 3 0 6 111 6 248 l1 247 200 119 c110 65 201 122 204 125 3 5 -271 177
-315 199 -3 1 -99 -53 -213 -120z"/>
<path d="M10123 1803 l-203 -125 0 -199 0 -200 23 12 c12 7 106 63 208 124
l185 113 180 -110 c98 -60 191 -116 207 -124 l27 -15 0 44 0 44 -159 93 c-171
98 -203 119 -184 120 7 0 76 -38 155 -84 198 -115 188 -110 188 -88 0 13 -45
45 -161 112 -175 102 -201 119 -182 120 7 0 76 -38 155 -84 198 -115 188 -111
188 -88 0 14 -41 43 -159 112 -174 100 -203 119 -183 120 7 0 77 -38 155 -84
195 -114 185 -110 180 -83 -3 15 -29 36 -81 66 -199 114 -265 155 -254 159 6
2 77 -35 157 -83 80 -47 152 -88 161 -92 13 -5 15 3 12 48 l-3 53 -200 122
c-110 68 -202 122 -205 122 -3 0 -96 -56 -207 -125z"/>
<path d="M9275 1772 l-160 -98 0 -254 0 -254 198 -118 c109 -65 203 -118 209
-118 12 0 340 191 336 196 -2 1 -96 57 -208 122 l-205 120 -5 251 -5 251 -160
-98z"/>
<path d="M10168 1332 c-87 -53 -157 -99 -157 -102 -1 -3 91 -59 203 -125 l205
-120 -6 -254 c-5 -217 -4 -253 8 -246 8 5 85 53 172 108 l157 99 -2 246 -3
246 -205 123 c-113 68 -207 123 -210 123 -3 -1 -76 -45 -162 -98z"/>
<path d="M9903 1242 c-15 -2 -23 -10 -23 -22 0 -10 -4 -21 -9 -24 -14 -9 10
-51 37 -64 45 -21 89 26 70 76 -12 31 -33 40 -75 34z"/>
<path d="M10010 888 l-1 -253 -200 -119 c-110 -65 -202 -122 -204 -126 -5 -9
313 -202 323 -197 4 2 98 57 210 122 l202 117 0 217 c0 119 3 232 6 251 l5 35
-147 90 c-81 50 -158 96 -171 103 l-23 13 0 -253z"/>
<path d="M9110 918 c0 -90 -3 -179 -6 -199 l-6 -36 203 -123 c112 -68 209
-123 214 -123 6 0 101 55 211 123 l201 123 7 66 c8 84 8 331 0 331 -3 0 -96
-55 -207 -122 -111 -68 -204 -122 -207 -121 -3 1 -94 56 -203 122 -108 67
-199 121 -202 121 -3 0 -5 -73 -5 -162z"/>
<path d="M6620 2110 l0 -190 -110 0 -110 0 0 -155 0 -155 110 0 110 0 0 -387
c0 -214 5 -431 10 -483 17 -179 70 -293 164 -356 83 -54 144 -66 384 -71 l212
-5 0 151 0 151 -141 0 c-163 0 -208 10 -248 56 -47 53 -51 99 -51 539 l0 405
225 0 225 0 0 155 0 155 -225 0 -225 0 0 190 0 190 -165 0 -165 0 0 -190z"/>
<path d="M5680 2120 l0 -170 145 0 145 0 0 170 0 170 -145 0 -145 0 0 -170z"/>
<path d="M11212 1927 c-49 -19 -88 -61 -101 -111 -8 -31 -11 -264 -11 -765 l0
-721 160 0 160 0 0 639 c0 545 2 640 14 651 11 9 105 11 373 8 343 -3 361 -5
422 -26 119 -43 186 -107 227 -217 17 -46 19 -92 22 -552 l3 -503 160 0 160 0
-3 542 -3 543 -28 82 c-62 185 -195 322 -373 383 -147 52 -160 53 -669 56
-359 2 -488 0 -513 -9z"/>
<path d="M7983 1905 c-138 -38 -207 -106 -251 -250 -14 -42 -16 -149 -19 -697
l-4 -648 161 0 160 0 0 549 c0 320 4 570 10 600 13 67 42 108 94 132 37 17 71
19 359 19 l317 0 0 155 0 155 -387 -1 c-301 0 -400 -3 -440 -14z"/>
<path d="M2775 1733 c-146 -33 -224 -109 -254 -251 -7 -36 -11 -238 -11 -617
l0 -565 145 0 145 0 0 523 c0 576 -1 564 63 611 27 20 43 21 328 24 l299 3 0
139 0 140 -347 -1 c-192 -1 -357 -3 -368 -6z"/>
<path d="M5680 1020 l0 -720 145 0 145 0 0 720 0 720 -145 0 -145 0 0 -720z"/>
</g>
</svg>
